<svg fill="none" height="64" viewBox="0 0 112 64" width="112" xmlns="http://www.w3.org/2000/svg"><g clip-rule="evenodd" fill-rule="evenodd"><path d="m87.5521 60.4133v-12.6499c0-.1594-.0637-.3124-.1771-.4252-.1134-.1127-.2671-.1761-.4275-.1761-.0784 0-.156.0156-.2281.0461-.0722.0305-.1374.0751-.1918.1313-.0544.0561-.0969.1226-.1248.1955-.028.0728-.0409.1505-.0379.2284v12.6499c-.003.0779.0099.1556.0379.2285.0279.0728.0704.1393.1248.1955.0544.0561.1196.1008.1918.1313.0721.0304.1497.0461.2281.0461.1604 0 .3141-.0634.4275-.1762.1134-.1127.1771-.2657.1771-.4252zm-4.2147-1.5695c-.0323-.0724-.0794-.1374-.1384-.1907-.1149-.1109-.2687-.1729-.4288-.1729-.16 0-.3138.062-.4287.1729-.8338.8293-1.9647 1.2952-3.1439 1.2952s-2.3101-.4659-3.1439-1.2952c-.8339-.8293-1.3023-1.9541-1.3023-3.1269 0-1.1729.4684-2.2977 1.3023-3.127.4117-.4125.9015-.74 1.4411-.9634s1.1183-.3385 1.7028-.3385 1.1632.1151 1.7028.3385 1.0293.5509 1.4411.9634c.1149.1109.2687.1729.4287.1729.1601 0 .3139-.062.4288-.1729.0593-.0543.1066-.1202.139-.1936s.0491-.1526.0491-.2328c0-.0801-.0167-.1594-.0491-.2328s-.0797-.1393-.139-.1936c-.524-.5233-1.1467-.9385-1.8324-1.2218-.6857-.2834-1.421-.4292-2.1635-.4292-.7426 0-1.4778.1458-2.1635.4292-.6857.2833-1.3084.6985-1.8324 1.2218-.5248.5219-.9412 1.1415-1.2252 1.8234s-.4302 1.4128-.4302 2.1509.1462 1.469.4302 2.1509.7004 1.3015 1.2252 1.8234c.5225.5259 1.1447.9435 1.8306 1.2284.686.285 1.4219.4318 2.1653.4318s1.4793-.1468 2.1653-.4318c.6859-.2849 1.3081-.7025 1.8306-1.2284.059-.0533.1061-.1183.1384-.1908s.049-.1509.049-.2302-.0167-.1577-.049-.2302zm8.392-8.2049v9.7744c0 .1595-.0637.3125-.1771.4252-.1134.1128-.2671.1762-.4275.1762-.1603 0-.3141-.0634-.4275-.1762-.1134-.1127-.1771-.2657-.1771-.4252v-9.7744c0-.1595.0637-.3124.1771-.4252s.2672-.1761.4275-.1761c.1604 0 .3141.0633.4275.1761s.1771.2657.1771.4252zm0-2.8317v-.0438c0-.1594-.0637-.3124-.1771-.4252-.1134-.1127-.2671-.1761-.4275-.1761-.1603 0-.3141.0634-.4275.1761-.1134.1128-.1771.2658-.1771.4252v.0438c0 .1595.0637.3124.1771.4252s.2672.1761.4275.1761c.1604 0 .3141-.0633.4275-.1761s.1771-.2657.1771-.4252zm14.2796 7.7189c.001.738-.143 1.469-.426 2.1514-.283.6823-.698 1.3027-1.221 1.8255-.524.5229-1.146.938-1.831 1.2218-.685.2837-1.419.4305-2.161.4319-1.0421.0046-2.0702-.2352-3.0014-.6997-.1387-.0822-.2401-.2145-.2831-.3694-.043-.1548-.0243-.3201.0523-.4615.0843-.1364.219-.2345.3751-.2734.1562-.0388.3214-.0153.4603.0656.7482.3554 1.5673.5385 2.3968.5358.88 0 1.741-.2597 2.473-.7463.732-.4865 1.303-1.1781 1.64-1.9872s.425-1.6995.253-2.5584-.596-1.6479-1.218-2.2672c-.623-.6193-1.416-1.041-2.28-1.2119-.863-.1708-1.7585-.0831-2.5721.252-.8135.3352-1.5088.9027-1.998 1.6309s-.7503 1.5843-.7503 2.4601v7.7626c0 .1595-.0637.3125-.1771.4252-.1134.1128-.2672.1762-.4275.1762-.1604 0-.3141-.0634-.4275-.1762-.1134-.1127-.1771-.2657-.1771-.4252v-7.7626c0-1.4905.5953-2.9199 1.6549-3.9738 1.0597-1.0539 2.4968-1.646 3.9957-1.646 1.498 0 2.935.5921 3.995 1.646s1.655 2.4833 1.655 3.9738zm3.908 4.43c.007.049.01.0794.027.0964v.0328h-.428c-.004-.0044-.007-.0096-.009-.0153-.002-.0056-.003-.0116-.002-.0175v-.317c0-.2843-.088-.492-.242-.5795-.163-.0686-.34-.0985-.517-.0875h-.352v1.0168h-.461v-2.5803h.912c.239-.0122.478.0212.704.0985.264.1093.395.328.395.656.008.0987-.011.1977-.056.2862-.045.0886-.112.1635-.196.2167-.114.0701-.241.1149-.374.1312.089.0069.175.033.253.0764s.145.1032.198.1751c.09.1117.14.2502.142.3936v.3717c.003.0168.005.032.006.0457zm-1.105-1.2046c.145.004.29-.0145.429-.0547.082-.0303.152-.0861.199-.1589.048-.0729.07-.159.065-.2456 0-.1859-.044-.2952-.165-.3718-.121-.0765-.308-.0984-.561-.0984h-.385v.9294zm.982-2.1144c.287.1164.547.2889.766.5072.325.3307.546.7491.634 1.2033.088.4541.04.924-.138 1.3514s-.478.7933-.863 1.0525c-.386.2591-.839.4001-1.304.4053-.309.0053-.617-.0531-.902-.1716-.286-.1186-.544-.2947-.758-.5172-.223-.2156-.399-.4742-.518-.7599-.119-.2858-.179-.5927-.174-.902-.002-.3089.058-.6151.177-.9005s.294-.5442.515-.7613c.217-.2185.475-.3912.761-.5077.285-.1165.591-.1744.899-.1702.31-.0038.618.0542.905.1707zm-.124 4.0445c.247-.1028.471-.2535.659-.4432.188-.1881.337-.4116.437-.6576s.15-.5094.146-.7747c.003-.2636-.046-.5253-.146-.7695-.101-.2441-.249-.4658-.437-.6518-.186-.1918-.41-.3432-.658-.4448s-.514-.1512-.782-.1456c-.266-.0067-.531.0424-.778.1441-.246.1017-.468.2538-.651.4463-.191.1839-.343.405-.445.6494-.102.2445-.153.5072-.149.7719-.003.2653.046.5287.146.7747s.249.4695.437.6576c.188.1897.412.3404.66.4432.247.1029.512.1558.78.1558s.533-.0529.781-.1558z" fill="#ff4b00"/><path d="m39.4254 52.0167c-.0242.0249-.0533.0445-.0855.0577-.0321.0131-.0667.0195-.1014.0188h-2.1106c-.0149-.0017-.03-.0001-.0441.0048-.0142.0048-.027.0128-.0376.0234-.0106.0105-.0186.0233-.0235.0373-.0049.0141-.0065.0291-.0048.0439v4.6357c0 .4811.099.8419.2968 1.0715.1979.2296.5167.3498.9564.3498h.7255c.07 0 .1371.0277.1866.0769s.0773.116.0773.1855v2.0774c.003.0362-.0016.0727-.0134.1071-.0119.0344-.0309.066-.0557.0927-.0248.0268-.0549.0481-.0885.0626-.0335.0145-.0697.022-.1063.0218-.6156.0328-1.0553.0438-1.3191.0438-1.2202 0-2.1326-.1968-2.7262-.6014-.5936-.4045-.9124-1.148-.9234-2.2632v-5.8602c.0018-.0148.0001-.0298-.0048-.0439-.0049-.014-.0129-.0268-.0235-.0373-.0106-.0106-.0234-.0186-.0376-.0234-.0141-.0049-.0292-.0065-.044-.0048h-1.2532c-.07 0-.1371-.0276-.1866-.0768-.0494-.0492-.0772-.116-.0772-.1856v-1.9461c-.0008-.0346.0057-.0689.019-.1009.0132-.032.0329-.0609.0579-.085.0246-.0243.0537-.0436.0858-.0567.0321-.0132.0664-.0199.1011-.0198h1.2532c.0148.0018.0299.0001.044-.0047.0142-.0049.027-.0129.0376-.0234.0106-.0106.0186-.0233.0235-.0374s.0066-.029.0048-.0438v-2.6022c-.0007-.0345.0057-.0689.019-.1009.0132-.032.033-.0609.0579-.0849.0246-.0244.0538-.0437.0858-.0568.0321-.0131.0664-.0198.1011-.0198h2.4624c.07 0 .1371.0277.1866.0769.0494.0492.0772.1159.0772.1855v2.6022c0 .0765.033.1093.11.1093h2.1106c.0699 0 .137.0277.1865.0769s.0773.1159.0773.1855v1.9461c.0001.0345-.0067.0687-.0199.1006s-.0326.0609-.057.0853zm-19.5123-2.0774c.6926.2855 1.296.7498 1.7478 1.3448.4114.5495.6314 1.2174.6266 1.9024v7.4128c.0001.0345-.0066.0687-.0198.1006s-.0326.0609-.0571.0853c-.0242.0248-.0533.0445-.0854.0576-.0322.0132-.0667.0196-.1015.0189h-2.5723c-.07 0-.1371-.0276-.1866-.0768-.0494-.0492-.0772-.116-.0772-.1856v-.7216c0-.017-.004-.0337-.0116-.0489-.0077-.0152-.0188-.0284-.0324-.0385-.0086-.0035-.0179-.005-.0272-.0046-.0092.0004-.0183.0027-.0266.0069-.0083.0041-.0156.0099-.0215.0171-.0059.0071-.0102.0154-.0127.0243-.6155.8091-1.6049 1.2027-2.968 1.2027-1.1433 0-2.0666-.2734-2.7702-.831-.7035-.5576-1.0553-1.3666-1.0553-2.449s.3957-1.9899 1.1872-2.6131 1.9128-.9294 3.3858-.9294h2.2425c.0149.0018.03.0002.0441-.0047s.027-.0129.0376-.0234.0186-.0233.0235-.0373c.0049-.0141.0065-.0291.0048-.0439v-.4811c0-.481-.1539-.8528-.4397-1.1261-.2859-.2733-.7366-.4045-1.3192-.4045-.3914-.0118-.7798.0708-1.1322.2405-.1384.0676-.2615.1626-.3617.2791-.1002.1166-.1754.2523-.221.3988-.0439.164-.1429.2405-.2858.2186l-2.6602-.3498c-.1759-.0219-.2639-.0875-.2419-.1968.0578-.6188.3163-1.2021.7365-1.6619.4695-.518 1.0578-.9156 1.7149-1.1589.7622-.285 1.5712-.4259 2.3855-.4155.8752-.0143 1.7439.1532 2.5503.492zm-1.3851 8.2984c.207-.1456.3753-.3391.4902-.5639s.173-.4741.1694-.7262v-.7872c.0017-.0148.0001-.0298-.0048-.0438-.0049-.0141-.0129-.0269-.0235-.0374s-.0235-.0185-.0376-.0234-.0292-.0065-.0441-.0048h-1.5829c-.6596 0-1.1763.1313-1.55.3718-.1769.1117-.3215.2671-.4198.4511s-.1468.3902-.1408.5985c0 .3936.1319.7106.4177.9293s.6486.339 1.1212.339c.5768.0177 1.1426-.1596 1.605-.503zm-15.55478 1.9243c-.86066-.5798-1.50573-1.425-1.83579-2.4053-.252837-.7216-.373758-1.5854-.373758-2.5803s.120921-1.8149.373758-2.5365c.32883-.9606.97115-1.7841 1.8248-2.3398.85744-.5685 1.87977-.8528 3.05599-.8528 1.09399-.0188 2.16901.2856 3.08898.8747.87942.5904 1.473 1.3229 1.7698 2.2085.0933.2536.1524.5183.1759.7872v.0438c.0015.0301-.003.0603-.0133.0887-.0102.0284-.026.0545-.0464.0769-.0205.0223-.0451.0404-.0726.0533s-.0572.0202-.0875.0216l-2.52838.3717h-.04397c-.06358.0033-.12606-.0174-.17497-.0579-.0489-.0406-.08064-.098-.08886-.1607l-.06595-.3499c-.11234-.3818-.35291-.7136-.68155-.9403-.36923-.2494-.80692-.3792-1.25318-.3717-.42318-.0127-.83931.1099-1.18722.3499-.32598.2388-.56516.5764-.68156.9621-.16489.4373-.24184 1.0387-.24184 1.7931s.06596 1.3557.21986 1.793c.11004.4094.35363.7709.69254 1.0278.3456.2552.76802.3862 1.19822.3717.4274.0066.84624-.1196 1.19821-.3608.3448-.2414.59678-.5923.71453-.9949.01658-.0417.02407-.0865.02199-.1312.00795-.0089.01401-.0193.01779-.0306s.0052-.0232.00419-.035c.011-.175.10993-.2406.3078-.2187l2.52835.3936c.1429.0328.2198.1093.2198.2405-.0192.2229-.0634.4429-.1319.656-.2916.9592-.92987 1.7771-1.79179 2.296-.89042.5576-1.91274.831-3.06699.831-1.15424 0-2.18756-.2843-3.045-.8747zm28.49308-10.2444c-.0237-.0591-.0661-.109-.1207-.1422-.3078-.1968-.7255-.3062-1.2532-.3062-1.0113 0-1.8248.4374-2.4184 1.312-.022.0328-.033.0328-.066.0219-.0329-.0109-.0439-.0437-.0439-.0875v-.8309c0-.0696-.0278-.1363-.0773-.1856-.0495-.0492-.1166-.0768-.1866-.0768h-2.5723c-.0346-.0001-.069.0066-.1011.0198-.032.0131-.0612.0324-.0857.0567-.025.0241-.0448.053-.058.085s-.0197.0663-.019.1009v10.7147c0 .0696.0278.1363.0773.1855s.1166.0769.1865.0769h2.5723c.0348.0007.0694-.0058.1015-.0189.0322-.0132.0612-.0328.0854-.0577.0245-.0244.0439-.0534.0571-.0853s.02-.066.0199-.1005v-5.9696c0-.5686.1759-1.0168.5496-1.3667.3665-.3412.8403-.5459 1.3411-.5795l.105-.0118c.1516-.0173.2799-.0319.3787-.0319.2605-.0006.5196.0362.7695.1093.1869.0766.2858.0219.3078-.153l.4617-2.4928c.0165-.0615.0126-.1267-.0112-.1858zm19.8203 6.1299c.0146-.0334.022-.0694.0219-.1057.0286-.621-.0009-1.2432-.0879-1.8587-.1979-1.4104-.7255-2.5475-1.616-3.3893-.8904-.8419-2.0666-1.2683-3.5286-1.2683-1.1653 0-2.1656.3061-3.0011.9184-.8442.6105-1.4654 1.4779-1.7698 2.4709-.2309.6831-.3425 1.4005-.3298 2.1211 0 1.1808.1539 2.1429.4617 2.8645.3406.9815 1.0025 1.8208 1.8798 2.3835.8721.5685 1.9384.8528 3.1989.8528.8604.008 1.7134-.1594 2.5063-.492.7286-.3023 1.3707-.7794 1.8688-1.3885.041-.0517.071-.1113.0879-.175-.0146-.0756-.0531-.1445-.1099-.1968l-1.5829-1.5525c-.066-.0547-.11-.0875-.1539-.0875-.0419.002-.0824.0152-.1173.0383-.0348.0232-.0627.0553-.0806.0929-.2483.3558-.5806.6456-.9678.8439-.3871.1982-.8173.2989-1.2528.2932-1.1762 0-1.9567-.4045-2.3304-1.2245-.1175-.2802-.1988-.5741-.2419-.8747-.033-.0656 0-.1093.088-.1093h6.7935c.0365.003.0731-.0015.1077-.0134.0346-.0118.0664-.0306.0932-.0553.0269-.0247.0483-.0547.063-.088zm-7.1674-1.9644c.0326-.2369.0841-.4709.1539-.6997.2859-.8528.9014-1.2902 1.8248-1.2902.4353-.0142.8635.1124 1.2202.3608.3382.2529.5819.6107.6926 1.0168 0-.0042.0048.0238.0152.0833.0165.0957.0473.2729.0947.529.022.0765 0 .1093-.0879.1093h-3.8035c-.077 0-.11-.0328-.11-.1093zm15.9836-4.3077c.0546.0332.0969.0831.1207.1422s.0277.1243.0112.1858l-.4617 2.4928c-.022.1749-.1209.2296-.3078.153-.2499-.0731-.509-.1099-.7695-.1093-.0989 0-.2271.0146-.3788.0319l-.1049.0118c-.5008.0336-.9746.2383-1.3411.5795-.3738.3499-.5496.7981-.5496 1.3667v5.9696c0 .0345-.0067.0686-.0199.1005s-.0326.0609-.0571.0853c-.0242.0249-.0533.0445-.0854.0577-.0322.0131-.0667.0196-.1015.0189h-2.5723c-.07 0-.1371-.0277-.1865-.0769-.0495-.0492-.0773-.1159-.0773-.1855v-10.7147c-.0007-.0346.0057-.0689.019-.1009.0132-.032.033-.0609.0579-.085.0246-.0243.0538-.0436.0858-.0567.0321-.0132.0664-.0199.1011-.0198h2.5723c.07 0 .1371.0276.1866.0768.0495.0493.0773.116.0773.1856v.8309c0 .0438.011.0766.0439.0875.033.0109.044.0109.066-.0219.5936-.8746 1.4071-1.312 2.4184-1.312.5277 0 .9454.1094 1.2532.3062zm10.2123 1.5087c-.4519-.595-1.0553-1.0593-1.7479-1.3448-.8064-.3388-1.675-.5063-2.5503-.492-.8142-.0104-1.6232.1305-2.3854.4155-.6572.2433-1.2455.6409-1.7149 1.1589-.4203.4598-.6788 1.0431-.7365 1.6619-.022.1093.0659.1749.2418.1968l2.6603.3498c.1429.0219.2418-.0546.2858-.2186.0456-.1465.1208-.2822.2209-.3988.1002-.1165.2233-.2115.3617-.2791.3524-.1697.7409-.2523 1.1322-.2405.5827 0 1.0334.1312 1.3192.4045s.4397.6451.4397 1.1261v.4811c.0018.0148.0001.0298-.0048.0439-.0049.014-.0129.0268-.0235.0373s-.0234.0185-.0376.0234c-.0141.0049-.0292.0065-.044.0047h-2.2426c-1.473 0-2.5943.3062-3.3857.9294-.7915.6232-1.1873 1.5307-1.1873 2.6131s.3518 1.8914 1.0553 2.449c.7036.5576 1.627.831 2.7702.831 1.3631 0 2.3525-.3936 2.9681-1.2027.0024-.0089.0067-.0172.0126-.0243.0059-.0072.0132-.013.0215-.0171.0083-.0042.0174-.0065.0267-.0069.0092-.0004.0185.0011.0271.0046.0137.0101.0247.0233.0324.0385.0076.0152.0116.0319.0116.0489v.7216c0 .0696.0278.1364.0773.1856.0494.0492.1165.0768.1865.0768h2.5723c.0348.0007.0693-.0057.1015-.0189.0321-.0131.0612-.0328.0854-.0576.0245-.0244.0439-.0534.0571-.0853s.0199-.0661.0199-.1006v-7.4128c.0047-.685-.2153-1.3529-.6266-1.9024zm-2.6428 6.3897c-.1149.2248-.2832.4183-.4902.5639-.4623.3434-1.0281.5207-1.6049.503-.4727 0-.8355-.1203-1.1213-.339s-.4177-.5357-.4177-.9293c-.006-.2083.0426-.4145.1408-.5985.0983-.184.243-.3394.4198-.4511.3738-.2405.8904-.3718 1.55-.3718h1.583c.0148-.0017.0299-.0001.044.0048.0142.0049.027.0129.0376.0234s.0186.0233.0235.0374c.0049.014.0066.029.0048.0438v.7872c.0037.2521-.0545.5014-.1694.7262z" fill="#001724"/><path d="m70.9419 1.65789c-1.0772-.4795-2.2504-.707624-3.4298-.666935-.0153-.001533-.0308.000157-.0454.004961-.0147.004804-.0281.012614-.0395.022924s-.0205.02289-.0267.03692-.0094.0292-.0093.04453c0 .0319.0127.06249.0354.08504s.0535.03523.0855.03523c1.1187.03616 2.2151.31988 3.2097.83053.9945.51066 1.8621 1.23539 2.5395 2.12147.9876 1.30954 1.5026 2.91183 1.4621 4.54827l-.044 1.70557-.2198 6.8552-.055 1.7056-.033.8638v.4264c-.0054.0642-.0081.1284-.0108.1913v.0001c-.0028.0656-.0056.1299-.0112.1912-.0842 1.0406-.3405 2.0601-.7585 3.0176-.8314 1.8899-2.2748 3.4487-4.1003 4.428l-.6925.339-.3408.1421-.3957.1421-1.616.6123-3.2099 1.2245-10.7168 4.0653c-.0008-.0251-.0012-.05-.0012-.0746v-.8965c0-.9731-.5496-1.1918-1.2202-.503l-4.8478 4.9747c-.6705.6888-.4397 1.2573.5387 1.2573l6.9584-.0218c.9674 0 1.1872-.5467.4947-1.2136l-.4834-.4648 10.3329-4.5646 3.155-1.3885 1.5719-.6997.3958-.175.4397-.2186c.2867-.1419.5655-.2988.8354-.4702 2.176-1.3466 3.8361-3.3788 4.7159-5.7728.4335-1.17.664-2.4048.6816-3.6517.0073-.1012.0049-.2025.0025-.3069v-.0001c-.0012-.0534-.0025-.1076-.0025-.1631v-.4264l-.022-.8638-.055-1.7056-.2198-6.8552-.055-1.7165c-.0298-.60546-.1219-1.20628-.2748-1.79307-.3188-1.164-.8932-2.24317-1.6819-3.15974-.7752-.90236-1.7445-1.61979-2.8361-2.0992zm-9.5857 4.97483c-.6046.6232-1.0883.41547-1.0883-.43733v-.80907c0-.06207-.0027-.12584-.0079-.19095-1.8559.74995-3.7148 1.49139-5.5765 2.22433l-3.1659 1.25733-3.1769 1.2464-3.1769 1.24637-1.583.6342c-.4721.1846-.928.4076-1.3631.6669-.4378.2525-.8534.5415-1.2422.8637-.3931.3291-.7606.6873-1.0993 1.0715-.6764.7749-1.2221 1.6537-1.6159 2.6021-.3944.9655-.6283 1.9884-.6926 3.0286v.4045l-.0219.4264-.022.8419-.055 1.7056-.1979 6.7786-.0329.8528v.831c-.0002.5363.0551 1.0712.1649 1.5962.2285 1.0618.6861 2.0615 1.3411 2.9302.6758.8748 1.5396 1.5883 2.5283 2.0883.4967.2565 1.0201.4581 1.561.6013.2638.0656.5496.1203.8245.164l.4177.0437c.143.007.284.0365.4177.0875-.1404.0343-.2842.0526-.4287.0547l-.4287-.0219h-.0002c-.2857-.0328-.5715-.0656-.8573-.1203-.568-.1062-1.1215-.2787-1.6489-.5138-1.0784-.4664-2.0395-1.1647-2.8141-2.0446-.7792-.894-1.3531-1.9462-1.6819-3.0832-.1655-.5737-.265-1.1642-.2968-1.7603v-.8528l-.022-.8528-.2089-6.7786-.055-1.7056-.0219-.8419v-.8637c-.0166-1.8649.4364-3.7043 1.3177-5.3505.8814-1.6462 2.1629-3.0467 3.7279-4.0741.525-.3512 1.0805-.65488 1.66-.90743l1.5609-.67787 3.133-1.36667 3.067-1.35573 3.1329-1.3448 5.3958-2.29328-.471-.45077c-.6266-.60133-.4287-1.09333.4397-1.09333h6.222c.8574-.01093 1.0772.492.4726 1.1152zm-16.863 32.75608v-.0656c.01-.0044.021-.0062.0319-.0052.0109.0009.0214.0045.0306.0104.0092.006.0167.0141.0219.0237s.0079.0203.0079.0312-.0027.0216-.0079.0312-.0127.0177-.0219.0237-.0197.0096-.0306.0105-.0219-.0009-.0319-.0052zm15.1481-12.2453c-.7922.9561-1.912 1.587-3.1439 1.7712-.0332.0107-.0623.031-.0839.0582-.0215.0273-.0344.0603-.037.0948l-.1539 1.3776c-.0154.084-.0579.1608-.121.2187-.0272.0306-.0613.0545-.0995.0697-.0381.0151-.0793.0212-.1203.0178h-1.3082c-.039.0033-.0783-.0029-.1144-.0181-.0361-.0151-.068-.0388-.0928-.0689-.0249-.0301-.0421-.0658-.05-.104s-.0064-.0777.0044-.1152l.1979-1.4322c.0041-.033-.0036-.0664-.0216-.0944-.0181-.0279-.0455-.0487-.0774-.0587-.8411-.1659-1.592-.6327-2.1106-1.312-.5056-.6779-.7695-1.5088-.7695-2.4928 0-.1531.022-.3827.055-.6888l.0769-.7216c.0139-.079.0524-.1516.11-.2077.0277-.0308.0615-.0555.0994-.0724.0379-.017.0789-.0258.1204-.026h2.2426c.0414.0008.0822.01.12.0269s.0717.0412.0998.0715c.0273.0263.0469.0596.0566.0962s.0091.0752-.0016.1115l-.077.5685c-.0155.1453-.0228.2913-.022.4374 0 .5357.1429.973.4068 1.301.1335.1563.3006.2807.489.3639.1884.0833.3932.1234.5993.1172.2795.0052.5565-.0532.8098-.1707.2534-.1174.4765-.2909.6522-.5072.3957-.4446.5936-1.035.5936-1.7712.0059-.4881-.1659-.9618-.4837-1.3338-.3078-.3718-.9014-.9184-1.7588-1.6291-.6816-.5685-1.2312-1.0605-1.6599-1.476-.4351-.4376-.7887-.9484-1.0443-1.5088-.2924-.6186-.439-1.2954-.4288-1.9789 0-.1531.022-.4046.055-.7435.1539-1.1917.5936-2.1867 1.3081-2.9957.6901-.7968 1.6321-1.3366 2.6713-1.5307.0879-.0328.1319-.0765.1319-.1531l.1759-1.58531c.0182-.07982.0604-.15225.1209-.20773.0267-.03195.0604-.05741.0985-.07446s.0796-.02524.1214-.02394h1.2751c.0402-.00129.0801.00696.1164.02407.0363.01712.068.0426.0925.07433.0247.02802.0425.06137.0521.09742.0095.03605.0105.07382.0029.11031l-.2309 1.56351c-.0005.0323.0086.0642.0262.0914s.0429.0487.0727.0616c.9784.175 1.7479.6014 2.2975 1.3011.5497.6997.8355 1.5853.8355 2.6568 0 .1749-.011.4264-.044.7763l-.0769.6122c-.0181.0831-.0601.159-.121.2187-.029.0283-.0634.0506-.1011.0656s-.0781.0224-.1187.0219h-2.2535c-.039.0003-.0776-.0073-.1136-.0223-.0359-.015-.0683-.0372-.0953-.0652-.0249-.0301-.0428-.0653-.0523-.1032-.0095-.0378-.0104-.0772-.0027-.1155l.077-.6669c.0254-.1259.0365-.2543.033-.3827 0-.5685-.1429-1.0058-.4178-1.3338-.1346-.1578-.3035-.283-.494-.3663-.1904-.0834-.3973-.1226-.6052-.1148-.2661-.0009-.529.0564-.7703.1679s-.4549.2744-.6258.4772c-.3738.4373-.5607 1.0277-.5607 1.7821-.0017.487.1609.9606.4617 1.3448.3078.3936.8685.9403 1.6709 1.6181.8025.6779 1.4511 1.2683 1.8798 1.7056.4112.4089.7527.8816 1.0114 1.3995.2583.5389.3863 1.1305.3737 1.7275 0 1.465-.4177 2.6896-1.2312 3.6736z" fill="#ff4d00"/></g></svg>