<?xml version="1.0" encoding="UTF-8"?>
<svg width="119px" height="20px" viewBox="0 0 119 20" version="1.1" xmlns="http://www.w3.org/2000/svg" xmlns:xlink="http://www.w3.org/1999/xlink">
    <!-- Generator: Sketch 61 (89581) - https://sketch.com -->
    <title>mienvio-light</title>
    <desc>Created with Sketch.</desc>
    <g id="Desktop" stroke="none" stroke-width="1" fill="none" fill-rule="evenodd">
        <g id="1.-Landing" transform="translate(-125.000000, -115.000000)">
            <g id="nav" transform="translate(125.000000, 107.000000)">
                <g id="mienvio-light" transform="translate(0.000000, 8.000000)">
                    <g id="Group-14">
                        <path d="M23.3773333,10.6117037 L23.3773333,19.1383704 L18.9773333,19.1383704 L18.9773333,11.6694815 C18.9773333,10.0324444 18.0765926,9.03466667 16.6514074,9.03466667 C15.026963,9.08577778 14.0262222,10.4413333 14.0262222,12.3087407 L14.0262222,19.1383704 L9.62622222,19.1383704 L9.62622222,11.6694815 C9.62622222,10.0324444 8.70696296,9.03466667 7.20992593,9.03466667 C5.47733333,9.08577778 4.4002963,10.4413333 4.4002963,12.3087407 L4.4002963,19.1383704 L-0.000444444444,19.1383704 L-0.000444444444,5.38651852 L4.4002963,5.38651852 L4.4002963,7.7442963 C5.34696296,6.10651852 6.93288889,5.288 8.95362963,5.26281481 C11.204,5.26281481 12.866963,6.43911111 13.5573333,8.38355556 C14.4528889,6.33688889 16.141037,5.288 18.4173333,5.26281481 C21.4358519,5.26281481 23.3795556,7.33466667 23.3795556,10.5576296" id="Fill-1" fill="#B5D3FF"></path>
                        <path d="M29.9807407,5.38644444 L29.9807407,19.1382963 L25.58,19.1382963 L25.58,5.38644444 L29.9807407,5.38644444 Z M27.7802222,0.000296296296 C28.8905926,0.000296296296 29.6861481,0.795851852 29.6861481,1.90548148 C29.6861481,3.03659259 28.8905926,3.83288889 27.7802222,3.83288889 C26.6698519,3.83288889 25.8742963,3.03659259 25.8742963,1.90548148 C25.8742963,0.795851852 26.6698519,0.000296296296 27.7802222,0.000296296296 Z" id="Combined-Shape" fill="#B5D3FF"></path>
                        <path d="M46.3247407,13.6375556 L36.6306667,13.6375556 C37.0654815,15.2745926 38.2417778,16.1945926 39.8788148,16.1945926 C41.081037,16.1945926 42.2573333,15.7094074 43.1788148,14.7886667 L45.5062222,17.064963 C44.0995556,18.599037 42.0277037,19.4945926 39.4951111,19.4945926 C34.8121481,19.4945926 31.9565926,16.4508889 32.1936296,11.9738519 C32.3884444,8.30274074 35.4854815,5.47014815 39.1617778,5.40274074 C44.1595556,5.31162963 46.6358519,8.52792593 46.3247407,13.6375556 L46.3247407,13.6375556 Z M42.0788148,11.162 C42.0788148,9.47385185 41.0047407,8.37385185 39.4188148,8.37385185 C37.884,8.37385185 36.8351111,9.49977778 36.5536296,11.162 L42.0788148,11.162 Z" id="Fill-7" fill="#B5D3FF"></path>
                        <path d="M62.576963,10.6117037 L62.576963,19.1383704 L58.176963,19.1383704 L58.176963,11.6694815 C58.176963,10.0576296 57.2332593,9.06059259 55.7554815,9.06059259 C54.1495556,9.06059259 53.1302963,10.210963 52.951037,11.848 L52.951037,19.1383704 L48.5502963,19.1383704 L48.5502963,5.38651852 L52.951037,5.38651852 L52.951037,7.71837037 C53.9228889,6.10651852 55.5088148,5.288 57.5554815,5.26281481 C60.5991852,5.26281481 62.594,7.33466667 62.594,10.5576296" id="Fill-8" fill="#B5D3FF"></path>
                        <polygon id="Fill-9" fill="#B5D3FF" points="68.9817037 19.1381481 63.8024444 5.3862963 68.3439259 5.3862963 71.3031852 15.107037 74.2876296 5.3862963 78.6765185 5.3862963 73.4972593 19.1381481"></polygon>
                        <path d="M102.410519,12.3477778 C102.410519,16.5937037 99.392,19.407037 94.8905185,19.407037 C90.3623704,19.407037 87.3445926,16.5937037 87.3445926,12.3477778 C87.3445926,8.10185185 90.3623704,5.3137037 94.8905185,5.3137037 C99.392,5.3137037 102.410519,8.10185185 102.410519,12.3477778 M91.794963,12.3988889 C91.794963,14.5477778 93.049037,15.9796296 94.8905185,15.9796296 C96.7060741,15.9796296 97.9594074,14.5477778 97.9594074,12.3988889 C97.9594074,10.2759259 96.7060741,8.81814815 94.8905185,8.81814815 C93.049037,8.81814815 91.794963,10.2759259 91.794963,12.3988889" id="Fill-10" fill="#B5D3FF"></path>
                        <path d="M85.1288889,5.38644444 L85.1288889,19.1382963 L80.7288889,19.1382963 L80.7288889,5.38644444 L85.1288889,5.38644444 Z M88.1467407,7.40740741e-05 L84.4682222,3.27562963 C84.066,3.63488889 83.5445185,3.83340741 83.0052593,3.83340741 L80.728963,3.83340741 L83.1371111,0.825259259 C83.5541481,0.303777778 84.1867407,7.40740741e-05 84.8541481,7.40740741e-05 L88.1467407,7.40740741e-05 Z" id="Combined-Shape" fill="#B5D3FF"></path>
                        <path d="M113.008074,19.4072593 C113.008074,19.4072593 118.721407,14.4205926 118.721407,11.0294815 C118.721407,7.70355556 116.335481,5.31688889 113.008074,5.31688889 C109.680667,5.31688889 107.294741,7.70355556 107.294741,11.0294815 C107.294741,14.4205926 113.008074,19.4072593 113.008074,19.4072593 M110.156222,10.7287407 C110.156222,9.15392593 111.432519,7.87762963 113.008074,7.87762963 C114.582889,7.87762963 115.859926,9.15392593 115.859926,10.7287407 C115.859926,12.3035556 114.582889,13.5805926 113.008074,13.5805926 C111.432519,13.5805926 110.156222,12.3035556 110.156222,10.7287407" id="Fill-13" fill="#FF288C"></path>
                    </g>
                </g>
            </g>
        </g>
    </g>
</svg>